<svg xmlns="http://www.w3.org/2000/svg" viewBox="0 0 64 64">
  <style>
    .ink { fill: #14151A; }
    .dot { fill: #8A78C9; }
    @media (prefers-color-scheme: dark) {
      .ink { fill: #F5F3FA; }
      .dot { fill: #B6A9E8; }
    }
  </style>
  <g transform="translate(4.317 50.174) scale(0.073 -0.073)">
    <path class="ink" d="M276 -14Q179 -14 117.0 28.0Q55 70 42 148L158 178Q165 143 181.5 123.0Q198 103 222.5 94.5Q247 86 276 86Q320 86 341.0 101.5Q362 117 362 140Q362 163 342.0 175.5Q322 188 278 196L250 201Q198 211 155.0 228.5Q112 246 86.0 277.0Q60 308 60 357Q60 431 114.0 470.5Q168 510 256 510Q339 510 394.0 473.0Q449 436 466 376L349 340Q341 378 316.5 394.0Q292 410 256 410Q220 410 201.0 397.5Q182 385 182 363Q182 339 202.0 327.5Q222 316 256 310L284 305Q340 295 385.5 278.5Q431 262 457.5 231.5Q484 201 484 149Q484 71 427.5 28.5Q371 -14 276 -14Z"/>
  </g>
  <circle class="dot" cx="48.426" cy="45.056" r="5.184"/>
</svg>
